<svg width="30" height="30" viewBox="0 0 30 30" fill="none" xmlns="http://www.w3.org/2000/svg">
<path d="M18.75 2.81346H11.25C7.97625 2.81346 5.3125 5.47721 5.3125 8.75096V24.9985C5.3125 25.8148 5.76124 26.5572 6.48499 26.9359C7.20999 27.3147 8.07501 27.261 8.74626 26.796L14.82 22.5872C14.9275 22.5134 15.07 22.5134 15.1762 22.5872L21.255 26.796C21.6287 27.0548 22.0625 27.186 22.5 27.186C22.8475 27.186 23.1963 27.1035 23.515 26.9347C24.2388 26.556 24.6875 25.8134 24.6875 24.9971V8.75096C24.6875 5.47721 22.0237 2.81346 18.75 2.81346ZM22.8125 24.9985C22.8125 25.1635 22.7075 25.2434 22.645 25.2759C22.5837 25.3097 22.4587 25.3509 22.3212 25.2559L16.2425 21.0473C15.87 20.7885 15.4337 20.6597 14.9975 20.6597C14.5612 20.6597 14.1238 20.7898 13.7513 21.0473L7.6775 25.2547C7.5425 25.3472 7.4175 25.3072 7.355 25.2747C7.2925 25.2422 7.1875 25.1623 7.1875 24.9985V8.75096C7.1875 6.51096 9.01 4.68846 11.25 4.68846H18.75C20.99 4.68846 22.8125 6.51096 22.8125 8.75096V24.9985Z" fill="white"/>
</svg>
