<svg width="24" height="24" viewBox="0 0 24 24" fill="none" xmlns="http://www.w3.org/2000/svg">
<path d="M8.46997 8.53003C8.17697 8.23703 8.17697 7.76199 8.46997 7.46899C8.76297 7.17599 9.23801 7.17599 9.53101 7.46899L11.251 9.18896V4C11.251 3.586 11.587 3.25 12.001 3.25C12.415 3.25 12.751 3.586 12.751 4V9.18896L14.471 7.46899C14.764 7.17599 15.239 7.17599 15.532 7.46899C15.825 7.76199 15.825 8.23703 15.532 8.53003L12.532 11.53C12.386 11.676 12.194 11.75 12.002 11.75C11.81 11.75 11.618 11.677 11.472 11.53L8.46997 8.53003ZM17 10.25C16.586 10.25 16.25 10.586 16.25 11C16.25 11.414 16.586 11.75 17 11.75C18.792 11.75 20.25 13.208 20.25 15V16C20.25 17.792 18.792 19.25 17 19.25H7C5.208 19.25 3.75 17.792 3.75 16V15C3.75 13.208 5.208 11.75 7 11.75C7.414 11.75 7.75 11.414 7.75 11C7.75 10.586 7.414 10.25 7 10.25C4.381 10.25 2.25 12.381 2.25 15V16C2.25 18.619 4.381 20.75 7 20.75H17C19.619 20.75 21.75 18.619 21.75 16V15C21.75 12.381 19.619 10.25 17 10.25ZM18 15C18 14.448 17.552 14 17 14C16.448 14 16 14.448 16 15C16 15.552 16.448 16 17 16C17.552 16 18 15.552 18 15Z" fill="#B87629"/>
</svg>
