<svg width="20" height="20" viewBox="0 0 20 20" fill="none" xmlns="http://www.w3.org/2000/svg">
<path d="M7.05831 7.10837C6.81414 6.8642 6.81414 6.46834 7.05831 6.22417C7.30248 5.98 7.69834 5.98 7.9425 6.22417L9.37581 7.65748V3.33334C9.37581 2.98834 9.65581 2.70834 10.0008 2.70834C10.3458 2.70834 10.6258 2.98834 10.6258 3.33334V7.65748L12.0592 6.22417C12.3033 5.98 12.6992 5.98 12.9433 6.22417C13.1875 6.46834 13.1875 6.8642 12.9433 7.10837L10.4433 9.60837C10.3217 9.73003 10.1617 9.79168 10.0017 9.79168C9.84168 9.79168 9.68165 9.73087 9.55999 9.60837L7.05831 7.10837ZM14.1667 8.54168C13.8217 8.54168 13.5417 8.82168 13.5417 9.16668C13.5417 9.51168 13.8217 9.79168 14.1667 9.79168C15.66 9.79168 16.875 11.0067 16.875 12.5V13.3333C16.875 14.8267 15.66 16.0417 14.1667 16.0417H5.83333C4.34 16.0417 3.125 14.8267 3.125 13.3333V12.5C3.125 11.0067 4.34 9.79168 5.83333 9.79168C6.17833 9.79168 6.45833 9.51168 6.45833 9.16668C6.45833 8.82168 6.17833 8.54168 5.83333 8.54168C3.65083 8.54168 1.875 10.3175 1.875 12.5V13.3333C1.875 15.5158 3.65083 17.2917 5.83333 17.2917H14.1667C16.3492 17.2917 18.125 15.5158 18.125 13.3333V12.5C18.125 10.3175 16.3492 8.54168 14.1667 8.54168ZM15 12.5C15 12.04 14.6267 11.6667 14.1667 11.6667C13.7067 11.6667 13.3333 12.04 13.3333 12.5C13.3333 12.96 13.7067 13.3333 14.1667 13.3333C14.6267 13.3333 15 12.96 15 12.5Z" fill="#B87629"/>
</svg>
