<svg width="24" height="24" viewBox="0 0 24 24" fill="none" xmlns="http://www.w3.org/2000/svg">
<path d="M20.1098 5.0965C18.8628 3.5835 17.1298 2.75049 15.2278 2.75049C14.0838 2.75049 12.9778 3.02847 11.9998 3.55847C11.0228 3.02847 9.91677 2.75049 8.77177 2.75049C6.86977 2.75049 5.13578 3.5835 3.88978 5.0965C2.53378 6.7425 1.97178 8.9905 2.38478 11.1095C3.35978 16.1055 8.44777 19.5955 10.5908 20.8635C11.0258 21.1205 11.5128 21.2495 11.9998 21.2495C12.4868 21.2495 12.9748 21.1215 13.4098 20.8635C15.5518 19.5945 20.6408 16.1055 21.6158 11.1095C22.0278 8.9905 21.4658 6.7425 20.1098 5.0965ZM20.1428 10.8225C19.2848 15.2215 14.6138 18.4075 12.6448 19.5725C12.2478 19.8085 11.7518 19.8075 11.3548 19.5725C9.38578 18.4075 4.71476 15.2215 3.85676 10.8225C3.52776 9.13851 3.97377 7.35448 5.04677 6.05048C6.00377 4.88948 7.32577 4.25049 8.77177 4.25049C9.78977 4.25049 10.7658 4.53049 11.5958 5.06049C11.8418 5.21749 12.1578 5.21749 12.4038 5.06049C13.2338 4.53049 14.2098 4.25049 15.2278 4.25049C16.6728 4.25049 17.9958 4.88948 18.9528 6.05048C20.0258 7.35448 20.4708 9.13751 20.1428 10.8225Z" fill="#B87629"/>
</svg>
