<svg width="20" height="20" viewBox="0 0 20 20" fill="none" xmlns="http://www.w3.org/2000/svg">
<path d="M17.8078 8.80169C17.012 12.8817 12.8295 15.7474 11.0687 16.7908C10.7387 16.9849 10.3695 17.0833 10.0004 17.0833C9.63119 17.0833 9.26201 16.9858 8.93201 16.7908C7.17034 15.7474 2.98786 12.8825 2.19202 8.80169C1.85952 7.09585 2.31203 5.28741 3.40286 3.96241C4.40119 2.75075 5.78869 2.08334 7.31036 2.08334C8.26786 2.08334 9.19202 2.32584 10.0004 2.78667C10.8087 2.32584 11.7328 2.08334 12.6903 2.08334C14.212 2.08334 15.5995 2.75075 16.5978 3.96241C17.6878 5.28741 18.1403 7.09585 17.8078 8.80169Z" fill="#B87629"/>
</svg>
