<svg width="30" height="30" viewBox="0 0 30 30" fill="none" xmlns="http://www.w3.org/2000/svg">
<path d="M24.9725 9.14424L18.7225 4.11747C16.565 2.38312 13.435 2.38312 11.2775 4.11747L5.0275 9.14424C3.62 10.2759 2.8125 11.9602 2.8125 13.7658V21.2584C2.8125 24.5295 5.47625 27.1917 8.75 27.1917H12.1875V21.2584C12.1875 19.7104 13.4487 18.45 15 18.45C16.5513 18.45 17.8125 19.7104 17.8125 21.2584V27.1917H21.25C24.5237 27.1917 27.1875 24.5308 27.1875 21.2584V13.7658C27.1875 11.9602 26.38 10.2759 24.9725 9.14424ZM25.3125 21.2584C25.3125 23.4954 23.49 25.3161 21.25 25.3161H19.6875V21.2584C19.6875 18.6763 17.585 16.5743 15 16.5743C12.415 16.5743 10.3125 18.6763 10.3125 21.2584V25.3161H8.75C6.51 25.3161 4.6875 23.4954 4.6875 21.2584V13.7658C4.6875 12.5316 5.23875 11.38 6.20125 10.606L12.4512 5.57924C13.9287 4.39258 16.0712 4.39258 17.5475 5.57924L23.7975 10.606C24.76 11.38 25.3112 12.5316 25.3112 13.7658V21.2584H25.3125Z" fill="white"/>
</svg>
