<svg width="30" height="30" viewBox="0 0 30 30" fill="none" xmlns="http://www.w3.org/2000/svg">
<path d="M11.25 22.5V6.25L26.25 3.75V20" stroke="#B87629" stroke-width="2" stroke-linecap="round" stroke-linejoin="round"/>
<path d="M7.5 26.25C9.57107 26.25 11.25 24.5711 11.25 22.5C11.25 20.4289 9.57107 18.75 7.5 18.75C5.42893 18.75 3.75 20.4289 3.75 22.5C3.75 24.5711 5.42893 26.25 7.5 26.25Z" stroke="#B87629" stroke-width="2" stroke-linecap="round" stroke-linejoin="round"/>
<path d="M22.5 23.75C24.5711 23.75 26.25 22.0711 26.25 20C26.25 17.9289 24.5711 16.25 22.5 16.25C20.4289 16.25 18.75 17.9289 18.75 20C18.75 22.0711 20.4289 23.75 22.5 23.75Z" stroke="#B87629" stroke-width="2" stroke-linecap="round" stroke-linejoin="round"/>
</svg>
