<svg width="228" height="89" viewBox="0 0 228 89" fill="none" xmlns="http://www.w3.org/2000/svg">
<path d="M159.708 67.9167C166.037 67.9167 171.167 62.7866 171.167 56.4583C171.167 50.1301 166.037 45 159.708 45C153.38 45 148.25 50.1301 148.25 56.4583C148.25 62.7866 153.38 67.9167 159.708 67.9167Z" fill="#B87629"/>
<rect x="164.917" y="28.3333" width="6.25" height="27.0833" fill="#B87629"/>
<rect x="164.917" y="22.0833" width="22.9167" height="12.5" rx="2" fill="#B87629"/>
<path d="M3.392 65.384H2.624C2.624 62.9093 3.81867 56.36 6.208 45.736C8.59733 35.112 9.792 29.2453 9.792 28.136C9.792 26.344 9.13067 24.6373 7.808 23.016L7.168 22.184L7.36 20.904C9.87733 20.0507 14.4853 19.624 21.184 19.624C21.8667 21.16 22.2293 22.9733 22.272 25.064C27.264 21.3947 31.5307 19.56 35.072 19.56C39.1253 19.56 41.536 21.3093 42.304 24.808C47.1253 21.3093 51.328 19.56 54.912 19.56C57.344 19.56 59.328 20.2427 60.864 21.608C62.4 22.9307 63.168 24.872 63.168 27.432C63.168 29.9493 62.2293 34.7707 60.352 41.896C58.5173 48.9787 57.6 54.0133 57.6 57C57.6 58.1093 57.8347 58.664 58.304 58.664C59.2 58.664 60.288 58.408 61.568 57.896L62.912 61.544C58.944 64.36 55.0187 65.768 51.136 65.768C49.3013 65.768 47.8293 65.2133 46.72 64.104C45.6107 62.9947 45.056 61.3733 45.056 59.24C45.056 57.064 45.9307 52.3707 47.68 45.16C49.472 37.9067 50.368 33.4907 50.368 31.912C50.368 30.3333 50.176 29.288 49.792 28.776C49.408 28.2213 48.6613 27.944 47.552 27.944C46.4427 27.944 44.6933 28.7547 42.304 30.376C42.0053 32.3387 41.344 35.5173 40.32 39.912C37.632 51.1333 36.288 59.0907 36.288 63.784C34.1973 64.8933 30.592 65.448 25.472 65.448H23.744C23.744 61.5227 24.7467 55.3787 26.752 47.016C28.7573 38.6533 29.76 33.64 29.76 31.976C29.76 30.312 29.568 29.224 29.184 28.712C28.8427 28.2 28.096 27.944 26.944 27.944C25.8347 27.944 24.064 28.776 21.632 30.44C21.248 32.5733 20.4587 36.1147 19.264 41.064C16.4907 52.6267 15.104 60.1787 15.104 63.72C13.2267 64.8293 9.32267 65.384 3.392 65.384ZM83.3965 57.32C85.1458 57.32 87.3645 56.552 90.0525 55.016C90.1378 54.4187 91.1192 50.0453 92.9965 41.896C94.8738 33.704 95.8125 27.88 95.8125 24.424C95.8125 23.144 95.7912 22.2693 95.7485 21.8C100.015 20.3067 104.09 19.56 107.973 19.56C108.229 19.8587 108.357 20.584 108.357 21.736C108.357 24.296 107.29 30.2693 105.157 39.656C103.066 49.0427 102.021 54.568 102.021 56.232C102.021 57.8533 102.319 58.664 102.917 58.664C103.301 58.664 104.453 58.3867 106.373 57.832L107.717 61.416C103.706 64.3173 99.8445 65.768 96.1325 65.768C94.3832 65.768 92.9538 65.2773 91.8445 64.296C90.7352 63.3147 90.0525 61.992 89.7965 60.328C84.5485 63.9547 80.0472 65.768 76.2925 65.768C73.8605 65.768 71.8552 65.1067 70.2765 63.784C68.7405 62.4187 67.9725 60.584 67.9725 58.28C67.9725 55.9333 68.8898 51.1333 70.7245 43.88C72.5592 36.6267 73.4765 31.1227 73.4765 27.368C73.4765 26.6427 73.2418 25.8533 72.7725 25C72.3458 24.1467 71.9192 23.464 71.4925 22.952L70.7885 22.184L70.9805 20.904C73.6685 20.008 78.2978 19.56 84.8685 19.56C85.6792 20.6693 86.0845 22.5467 86.0845 25.192C86.0845 27.8373 85.1672 32.936 83.3325 40.488C81.4978 48.04 80.5805 52.584 80.5805 54.12C80.5805 56.2533 81.5192 57.32 83.3965 57.32ZM144.201 61.544C143.391 63.3787 142.388 64.68 141.194 65.448C140.042 66.216 138.548 66.6 136.714 66.6C134.922 66.6 131.914 65.7253 127.69 63.976C123.508 62.184 120.394 61.288 118.345 61.288C117.962 61.6293 117.471 62.184 116.874 62.952C115.551 64.8293 114.548 65.768 113.866 65.768C113.183 65.768 112.372 65.4267 111.434 64.744C110.495 64.0187 109.706 63.2293 109.066 62.376C110.687 59.176 112.884 55.976 115.658 52.776C118.431 49.5333 121.46 46.056 124.746 42.344C128.031 38.5893 130.868 34.8347 133.258 31.08C129.46 30.7813 126.388 30.632 124.042 30.632C120.543 30.632 117.898 31.1653 116.106 32.232L115.21 32.744C114.868 32.0187 114.442 30.7387 113.93 28.904C113.418 27.0267 113.161 25.4693 113.161 24.232C113.161 22.9947 113.268 21.992 113.482 21.224C116.084 20.072 118.687 19.496 121.29 19.496C123.935 19.496 127.156 19.752 130.954 20.264C134.794 20.776 137.631 21.032 139.466 21.032C141.343 21.032 143.391 20.7973 145.61 20.328L147.082 23.592C144.351 27.944 140.404 33.0213 135.242 38.824C130.122 44.584 126.495 48.9573 124.362 51.944C126.026 52.072 128.628 52.6267 132.17 53.608C135.711 54.5893 137.994 55.08 139.018 55.08C140.511 55.08 141.919 54.0987 143.242 52.136L146.506 53.416C145.823 56.9573 145.055 59.6667 144.201 61.544ZM199.668 63.72C197.62 64.8293 194.633 65.384 190.708 65.384C189.471 65.384 188.276 65.2987 187.124 65.128C187.124 62.8667 188.297 56.936 190.644 47.336C193.033 37.736 194.228 31.272 194.228 27.944C194.228 27.0907 194.015 26.1947 193.588 25.256C193.161 24.2747 192.735 23.528 192.308 23.016L191.604 22.184L191.86 20.904C194.889 20.008 199.647 19.56 206.132 19.56C206.729 20.7547 207.028 22.2693 207.028 24.104C207.028 25.9387 206.132 31.016 204.34 39.336H204.724C207.796 39.336 210.1 37.9493 211.636 35.176C213.215 32.36 214.431 27.7307 215.284 21.288C219.081 20.136 222.836 19.56 226.548 19.56C226.633 19.9013 226.655 20.84 226.612 22.376C226.569 23.8693 226.164 25.8747 225.396 28.392C224.671 30.9093 223.348 33.512 221.428 36.2C219.508 38.8453 217.161 40.872 214.388 42.28C217.631 53.4587 220.148 59.048 221.94 59.048C222.623 59.048 223.711 58.792 225.204 58.28L225.908 58.024L227.444 61.544C223.476 64.36 219.465 65.768 215.412 65.768C211.359 65.768 208.692 63.6773 207.412 59.496C206.132 55.2293 205.172 50.216 204.532 44.456H203.188C200.841 54.8667 199.668 61.288 199.668 63.72Z" fill="white"/>
</svg>
