<svg width="30" height="30" viewBox="0 0 30 30" fill="none" xmlns="http://www.w3.org/2000/svg">
<path d="M26.9126 25.5862L21.0451 19.7188C22.5376 17.93 23.4376 15.6313 23.4376 13.125C23.4376 7.43875 18.8114 2.8125 13.1251 2.8125C7.43887 2.8125 2.81262 7.43875 2.81262 13.125C2.81262 18.8112 7.43887 23.4375 13.1251 23.4375C15.6314 23.4375 17.9301 22.5376 19.7189 21.0451L25.5864 26.9125C25.7689 27.095 26.0089 27.1875 26.2489 27.1875C26.4889 27.1875 26.7289 27.0963 26.9114 26.9125C27.2789 26.5463 27.2789 25.9525 26.9126 25.5862ZM4.68762 13.125C4.68762 8.4725 8.47262 4.6875 13.1251 4.6875C17.7776 4.6875 21.5626 8.4725 21.5626 13.125C21.5626 17.7775 17.7776 21.5625 13.1251 21.5625C8.47262 21.5625 4.68762 17.7775 4.68762 13.125Z" fill="#B87629"/>
</svg>
