<svg width="30" height="30" viewBox="0 0 30 30" fill="none" xmlns="http://www.w3.org/2000/svg">
<path d="M26.9127 25.5862L21.0452 19.7188C22.5377 17.93 23.4377 15.6313 23.4377 13.125C23.4377 7.43875 18.8114 2.8125 13.1252 2.8125C7.43892 2.8125 2.81267 7.43875 2.81267 13.125C2.81267 18.8112 7.43892 23.4375 13.1252 23.4375C15.6314 23.4375 17.9302 22.5376 19.7189 21.0451L25.5864 26.9125C25.7689 27.095 26.0089 27.1875 26.2489 27.1875C26.4889 27.1875 26.7289 27.0963 26.9114 26.9125C27.2789 26.5463 27.2789 25.9525 26.9127 25.5862ZM4.68767 13.125C4.68767 8.4725 8.47267 4.6875 13.1252 4.6875C17.7777 4.6875 21.5627 8.4725 21.5627 13.125C21.5627 17.7775 17.7777 21.5625 13.1252 21.5625C8.47267 21.5625 4.68767 17.7775 4.68767 13.125Z" fill="white"/>
</svg>
