<svg width="24" height="24" viewBox="0 0 24 24" fill="none" xmlns="http://www.w3.org/2000/svg">
<path d="M16 18C14.4229 18 12.9465 17.3826 11.8512 16.3346" stroke="#B87629" stroke-width="2" stroke-linecap="round" stroke-linejoin="round"/>
<path d="M7.15475 8.05196C5.78876 6.76008 3.95637 6 2 6" stroke="#B87629" stroke-width="2" stroke-linecap="round" stroke-linejoin="round"/>
<path d="M22.6432 19.0439C23.2699 18.6522 23.2699 17.7396 22.6432 17.3479L17.53 14.1521C16.864 13.7359 16 14.2147 16 15.0001V21.3916C16 22.1771 16.864 22.6559 17.53 22.2396L22.6432 19.0439Z" fill="#B87629"/>
<path d="M16 6V6C13.5778 6 11.3932 7.45643 10.4615 9.69231L8.92308 13.3846C7.75856 16.1795 5.02776 18 2 18V18" stroke="#B87629" stroke-width="2" stroke-linecap="round" stroke-linejoin="round"/>
<path d="M21.6432 7.04388C22.2699 6.65222 22.2699 5.73956 21.6432 5.34789L16.53 2.15214C15.864 1.73586 15 2.2147 15 3.00013V9.39164C15 10.1771 15.864 10.6559 16.53 10.2396L21.6432 7.04388Z" fill="#B87629"/>
</svg>
